<?xml version="1.0" encoding="UTF-8" standalone="no"?>
<!-- Created with Inkscape (http://www.inkscape.org/) -->

<svg
   xmlns:dc="http://purl.org/dc/elements/1.1/"
   xmlns:cc="http://creativecommons.org/ns#"
   xmlns:rdf="http://www.w3.org/1999/02/22-rdf-syntax-ns#"
   xmlns:svg="http://www.w3.org/2000/svg"
   xmlns="http://www.w3.org/2000/svg"
   xmlns:sodipodi="http://sodipodi.sourceforge.net/DTD/sodipodi-0.dtd"
   xmlns:inkscape="http://www.inkscape.org/namespaces/inkscape"
   id="svg4136"
   version="1.1"
   inkscape:version="0.91 r13725"
   width="1107"
   height="200"
   viewBox="0 0 1107 200"
   sodipodi:docname="Logo_Sharis_grande.svg">
  <metadata
     id="metadata4142">
    <rdf:RDF>
      <cc:Work
         rdf:about="">
        <dc:format>image/svg+xml</dc:format>
        <dc:type
           rdf:resource="http://purl.org/dc/dcmitype/StillImage" />
        <dc:title></dc:title>
      </cc:Work>
    </rdf:RDF>
  </metadata>
  <defs
     id="defs4140" />
  <sodipodi:namedview
     pagecolor="#ffffff"
     bordercolor="#666666"
     borderopacity="1"
     objecttolerance="10"
     gridtolerance="10"
     guidetolerance="10"
     inkscape:pageopacity="0"
     inkscape:pageshadow="2"
     inkscape:window-width="1920"
     inkscape:window-height="1017"
     id="namedview4138"
     showgrid="false"
     inkscape:zoom="1.2881662"
     inkscape:cx="564.39598"
     inkscape:cy="11.599628"
     inkscape:window-x="-8"
     inkscape:window-y="892"
     inkscape:window-maximized="1"
     inkscape:current-layer="svg4136" />
  <path
     style="fill:#f9f9f9"
     d="m 96.439746,192.25129 c -13.21057,-3.2044 -25.240352,-12.8256 -31.217725,-24.96737 l -3.255479,-6.61282 -12.417101,0 c -14.428104,0 -19.321659,-1.39186 -22.32873,-6.3509 C 24.259555,149.43689 9.7726527,86.1862 10.60236,81.76348 11.530467,76.81624 16.911108,72.03055 27.154565,67.04148 54.371096,53.7857 95.190366,46.94824 157.94234,45.13378 l 21.35047,-0.61734 26.51767,-14.987525 C 241.0622,9.6049877 245.28826,7.8327307 266.59186,4.0393549 c 13.77444,-2.452714 48.75814,-2.440253 67,0.02387 35.71389,4.8242445 83.70036,17.3798571 117.03718,30.6226561 6.67889,2.653139 8.69387,2.985231 18.11299,2.985231 9.96894,0 11.0583,-0.207782 18.34983,-3.5 9.03918,-4.081304 16.02777,-4.578938 22.57074,-1.607187 5.1606,2.343892 9.93929,8.104269 11.34094,13.670699 0.6872,2.72913 1.08832,17.99493 1.08832,41.41915 0,42.849796 0.0596,42.525366 -8.66589,47.195016 -6.53908,3.49955 -52.83203,24.81726 -53.94647,24.84212 -0.4882,0.0109 -2.40799,3.25475 -4.2662,7.20856 -10.49159,22.32358 -37.93781,32.70266 -60.30938,22.80665 -10.42683,-4.61228 -20.36075,-14.55728 -24.4341,-24.46137 l -1.87796,-4.56614 -108.18734,-0.004 -108.18734,-0.004 -3.25547,6.61282 c -9.52965,19.35745 -31.86917,29.97699 -52.521964,24.96737 z m 19.402374,-28.70134 c 5.57557,-2.69908 9.39536,-8.33894 10.01492,-14.78685 0.63181,-6.57537 -1.11771,-11.27433 -5.75879,-15.46726 -7.90839,-7.14475 -17.62132,-7.35654 -25.350814,-0.55276 -16.751061,14.74487 0.93102,40.56794 21.094684,30.80687 z m 305.5494,0.50056 c 6.98965,-3.53942 10.70034,-9.44299 10.70034,-17.02385 0,-16.54064 -18.52801,-25.1966 -31.1677,-14.56099 -3.70821,3.12025 -6.77983,9.42897 -6.81034,13.98755 -0.0454,6.78014 5.27554,15.03199 11.47804,17.80052 4.13451,1.84547 11.95247,1.74491 15.79966,-0.20323 z M 65.791637,125.84169 c 6.216808,-13.0501 20.048813,-23.09507 34.550223,-25.0908 19.95562,-2.746341 39.70092,7.56423 48.05023,25.0908 l 3.19977,6.71685 108.5,0.0459 108.5,0.0459 2.8916,-6.21228 c 9.93694,-21.34841 36.66305,-31.807291 58.91587,-23.05591 9.95917,3.91665 19.1811,12.15411 24.31243,21.71701 l 2.90418,5.41231 17.98796,-8.33157 17.98796,-8.33157 0.2666,-26.08858 c 0.14664,-14.34878 0.0833,-26.08864 -0.14079,-26.08864 -0.22407,0 -2.36904,0.89012 -4.76661,1.97804 -3.72443,1.69 -6.58215,1.98123 -19.62508,2 l -15.26588,0.022 -14.23412,-5.38156 C 400.42215,45.39198 359.57785,34.908049 326.09186,31.096232 c -17.49358,-1.99135 -47.10807,-1.502469 -59.32163,0.979291 -8.42415,1.711764 -18.22643,5.268087 -26.10037,9.469367 l -4.92199,2.62622 34.42199,0.5 c 39.44846,0.57301 39.52539,0.58849 43.10172,8.67338 2.31631,5.23641 1.89714,9.68789 -1.2943,13.74515 -4.5722,5.81261 -1.09873,5.58147 -83.87441,5.58147 -89.08189,0 -113.00463,1.08422 -145.511003,6.59482 -18.969086,3.21571 -42.5,10.34642 -42.5,12.87903 0,0.68317 2.021969,9.74352 4.493265,20.13413 2.471295,10.3906 4.496295,19.22951 4.5,19.64201 0.0037,0.4125 3.044235,0.72467 6.756735,0.69372 l 6.75,-0.0563 3.19977,-6.71685 z M 584.09186,138.0092 c -8.36433,-0.8169 -24.10412,-4.41496 -25.85386,-5.91011 -0.19462,-0.1663 1.75659,-6.63481 4.33602,-14.37445 l 4.68987,-14.07209 4.66398,4.11189 c 6.57625,5.79778 11.44748,8.07694 16.48049,7.71091 3.3972,-0.24707 4.24091,-0.70692 4.48895,-2.44667 0.38183,-2.67812 -2.68191,-4.86408 -13.02938,-9.29639 -13.19192,-5.650701 -18.24577,-12.18744 -18.21626,-23.56118 0.0421,-16.24488 9.99809,-25.12737 30.91251,-27.57951 11.50599,-1.34903 26.53495,0.13618 37.81557,3.73707 4.18812,1.33689 4.70429,1.79855 4.12059,3.68539 -0.36702,1.18638 -2.45242,7.20978 -4.63424,13.38533 l -3.96693,11.22829 -4.65562,-3.92568 c -5.7079,-4.81297 -10.80278,-7.03089 -16.15096,-7.03089 -4.38598,0 -6.14522,1.96206 -4.33391,4.83357 0.54181,0.85895 6.14636,3.73141 12.45455,6.38324 18.10675,7.6117 23.15374,13.222319 23.1905,25.78034 0.0425,14.52668 -8.458,23.21385 -25.99919,26.57003 -6.86653,1.31379 -17.54939,1.62677 -26.31268,0.77091 z m 460.00004,0 c -9.9114,-0.96799 -26,-4.92414 -26,-6.39333 0,-0.90045 8.0721,-26.20813 8.6821,-27.22023 0.2571,-0.4265 2.6661,1.20132 5.3533,3.61739 2.6873,2.41607 6.4341,5.12753 8.3264,6.02546 6.4757,3.07295 13.8907,1.33906 12.2754,-2.87042 -0.3226,-0.84067 -5.7405,-3.99686 -12.0399,-7.01375 -15.2597,-7.308171 -19.5753,-12.54862 -19.5917,-23.79039 -0.033,-22.29958 23.5897,-32.93243 58.9944,-26.55441 5.3838,0.96987 15,3.73581 15,4.31449 0,0.57892 -9.2494,26.05655 -9.5999,26.44331 -0.1976,0.21792 -2.363,-1.45085 -4.8121,-3.70838 -5.2532,-4.84215 -10.3685,-7.18783 -15.6749,-7.18783 -2.7724,0 -4.1303,0.5374 -4.8753,1.92944 -1.4302,2.67222 1.3081,4.6427 13.0336,9.37922 17.1514,6.92829 22.9286,13.262919 22.9286,25.14103 0,11.27858 -3.7517,17.92023 -12.951,22.92709 -8.1966,4.46115 -23.831,6.44756 -39.049,4.96131 z m -398.00004,-42.338091 0,-41.999999 19.5,0 19.5,0 0,15 0,15 8,0 8,0 0,-15 0,-15 19,0 19,0 0,41.999999 0,41.999991 -19,0 -19,0 0,-15.5 0,-15.5 -8,0 -8,0 0,15.5 0,15.5 -19.5,0 -19.5,0 0,-41.999991 z m 115.43874,2.77147 C 768.88405,76.84327 775.38523,57.92624 775.97766,56.40474 l 1.07714,-2.76637 26.67356,0.26637 26.67356,0.26637 1.74696,5 c 0.96082,2.75 7.40057,21.54716 14.31055,41.77146 l 12.5636,36.77147 -19.13124,-0.27147 -19.13124,-0.27147 -2.16949,-6.5 -2.16948,-6.5 -12.82972,0 -12.82972,0 -2.16948,6.5 -2.16949,6.5 -19.13124,0.27147 -19.13124,0.27147 13.36991,-39.271461 z m 47.24858,1.856081 c -0.28966,-0.754837 -1.48186,-4.579831 -2.64933,-8.49999 -1.16747,-3.92016 -2.30957,-7.12756 -2.53799,-7.12756 -0.22842,0 -1.37052,3.2074 -2.53799,7.12756 -1.16747,3.920159 -2.35967,7.745153 -2.64933,8.49999 -0.40852,1.06457 0.75511,1.37244 5.18732,1.37244 4.43221,0 5.59584,-0.30787 5.18732,-1.37244 z m 59.31268,-4.655991 0,-42.071629 33.25,0.30003 c 32.05692,0.28927 33.39771,0.37906 37.36647,2.50224 9.05347,4.84337 12.71954,9.4599 14.34296,18.06149 1.24562,6.59989 -0.40496,13.35672 -4.60789,18.86286 l -3.46367,4.537659 2.61122,3.423471 c 5.39358,7.07135 10.07813,19.61104 12.02315,32.18376 l 0.6608,4.27144 -19.78795,-0.27144 -19.78795,-0.27145 -1.26524,-8.76913 c -1.80853,-12.53461 -5.10819,-19.10439 -10.56608,-21.03758 -1.57598,-0.55821 -1.74788,0.69652 -2,14.598 l -0.27582,15.20871 -19.25,0.27159 -19.25,0.2716 0,-42.071621 z M 912.86935,84.1144 c 4.45824,-3.12266 2.29855,-10.29121 -3.52749,-11.70864 -2.16898,-0.5277 -2.25,-0.29873 -2.25,6.35897 0,7.57363 1.12075,8.61139 5.77749,5.34967 z m 57.22251,11.578299 0,-42.021589 19.51097,0 19.51107,0 -0.261,41.749999 -0.261,41.749991 -19.25004,0.27159 -19.25,0.2716 0,-42.021591 z"
     id="path4146"
     inkscape:connector-curvature="0" />
</svg>
